<svg width="26" height="26" viewBox="0 0 26 26" fill="none" xmlns="http://www.w3.org/2000/svg">
<path d="M23.2406 24.0431L8.1958 24.0431C7.64352 24.0431 7.1958 23.5954 7.1958 23.0431L7.1958 2.95703C7.1958 2.40475 7.64352 1.95703 8.1958 1.95703L16.8444 1.95703L24.2406 9.35325L24.2406 23.0431C24.2406 23.5954 23.7929 24.0431 23.2406 24.0431Z" fill="#EEF1F7" stroke="#CBD0DC" stroke-width="2"/>
<rect x="0.314453" y="11.5996" width="16.8042" height="9.80246" rx="4.90123" fill="#D82042"/>
<path d="M3.09961 18.8816L3.09961 14.1968H4.76949C5.13397 14.1968 5.43592 14.2631 5.67534 14.3958C5.91477 14.5285 6.09396 14.7099 6.21291 14.9402C6.33186 15.169 6.39133 15.4267 6.39133 15.7134C6.39133 16.0016 6.33109 16.2609 6.21062 16.4911C6.09167 16.7199 5.91172 16.9014 5.67077 17.0356C5.43134 17.1682 5.13015 17.2346 4.7672 17.2346H3.61887L3.61887 16.6353H4.70315C4.93343 16.6353 5.12024 16.5956 5.26359 16.5163C5.40694 16.4355 5.51217 16.3257 5.57927 16.1869C5.64637 16.0481 5.67992 15.8903 5.67992 15.7134C5.67992 15.5365 5.64637 15.3794 5.57927 15.2422C5.51217 15.1049 5.40618 14.9974 5.2613 14.9196C5.11795 14.8419 4.92885 14.803 4.694 14.803H3.80645L3.80645 18.8816H3.09961Z" fill="white"/>
<path d="M8.7366 18.8816H7.21998L7.21998 14.1968H8.78464C9.24366 14.1968 9.63788 14.2906 9.96728 14.4781C10.2967 14.6642 10.5491 14.9318 10.7244 15.2811C10.9013 15.6288 10.9898 16.0458 10.9898 16.5323C10.9898 17.0203 10.9006 17.4397 10.7222 17.7905C10.5453 18.1412 10.2891 18.4111 9.95355 18.6002C9.61805 18.7878 9.2124 18.8816 8.7366 18.8816ZM7.92682 18.264H8.69771C9.05456 18.264 9.35118 18.1969 9.58755 18.0627C9.82393 17.9269 10.0008 17.731 10.1183 17.4748C10.2357 17.217 10.2944 16.9029 10.2944 16.5323C10.2944 16.1648 10.2357 15.8529 10.1183 15.5967C10.0024 15.3405 9.82927 15.1461 9.59899 15.0134C9.36871 14.8807 9.08278 14.8144 8.74117 14.8144H7.92682L7.92682 18.264Z" fill="white"/>
<path d="M11.8688 18.8816L11.8688 14.1968H14.7739V14.8053H12.5756V16.2327H14.5657V16.8388H12.5756L12.5756 18.8816H11.8688Z" fill="white"/>
</svg>
